<svg version="1.1" id="Layer_1" xmlns="http://www.w3.org/2000/svg" xmlns:xlink="http://www.w3.org/1999/xlink" x="0px" y="0px"
	 width="100%" viewBox="0 0 1024 768" enable-background="new 0 0 1024 768" xml:space="preserve">
<path fill="#000000" opacity="1.000000" stroke="none" 
	d="
M571.510254,314.669983 
	C573.630737,310.214630 576.903198,308.789917 581.123718,310.258026 
	C584.352844,311.381256 585.629883,314.050171 585.322327,317.414368 
	C584.919312,321.822540 582.149292,323.939636 578.033203,324.145813 
	C575.234741,324.285980 573.069824,325.604126 571.594910,327.506012 
	C566.890930,333.572052 560.797729,334.901276 553.505737,334.399353 
	C546.183350,333.895325 544.659180,335.383698 541.703491,342.834625 
	C541.956299,343.025696 542.386047,343.417664 542.444885,343.368195 
	C548.236267,338.501404 555.179199,339.902618 561.845642,339.728241 
	C567.110718,339.590485 572.423462,340.382538 577.526245,337.905060 
	C579.685120,336.856873 582.225952,337.753021 583.622742,340.048248 
	C585.047302,342.389313 585.017944,344.892670 583.244507,347.034393 
	C581.632996,348.980499 579.403259,349.786102 576.952148,348.798340 
	C568.724792,345.482758 560.182861,347.581451 551.788635,347.311829 
	C549.738281,347.245941 547.805847,348.614624 548.068604,351.090515 
	C548.302185,353.291382 550.112976,353.921143 552.142334,353.906433 
	C554.136047,353.891998 556.149109,354.059479 557.993225,353.017181 
	C560.798340,351.431763 563.462219,351.446777 565.585999,354.111420 
	C567.059814,355.960632 567.312317,358.145538 565.952026,360.164459 
	C563.920776,363.179199 561.151184,363.369568 558.057251,361.873352 
	C556.820740,361.275391 555.529724,361.076569 553.937317,361.877991 
	C553.548401,365.745667 554.805969,368.075775 559.291382,367.818207 
	C561.283813,367.703766 563.292786,367.719818 565.286621,367.823456 
	C568.831299,368.007721 571.460449,366.805756 572.757874,363.311005 
	C573.761475,360.607849 575.695496,359.328857 578.581482,359.750885 
	C580.833618,360.080231 582.163330,361.446411 582.387207,363.727386 
	C582.667603,366.583984 581.571838,368.557831 578.650940,369.357483 
	C577.870850,369.570984 576.927673,369.884399 576.470459,370.471924 
	C572.711060,375.302063 567.560425,375.757935 562.060608,375.269531 
	C561.401123,375.210938 560.729187,375.289124 560.063110,375.308594 
	C558.249329,375.361633 557.300659,376.216095 557.383057,378.111664 
	C557.453491,379.733276 558.297668,380.609253 559.873718,380.612915 
	C566.702271,380.628723 573.531555,380.639099 580.359192,380.545837 
	C582.360291,380.518555 583.343140,378.532074 584.936951,377.692780 
	C588.198181,375.975342 591.451050,375.967438 594.111450,378.705292 
	C596.789673,381.461517 596.890869,384.749481 594.635010,387.808350 
	C592.396301,390.843811 588.917297,392.202087 585.867676,390.025146 
	C581.764771,387.096344 577.448425,387.412506 572.995056,387.402100 
	C569.662964,387.394318 566.318176,387.585968 563.001770,387.358429 
	C558.314209,387.036896 556.412048,388.772736 557.903564,393.945465 
	C565.459412,393.129913 568.898926,399.392273 573.501038,403.673859 
	C576.263672,406.244110 578.473694,407.584625 582.113342,405.021362 
	C585.536926,402.610138 589.241516,403.179596 591.828552,406.665131 
	C594.265869,409.948883 593.816040,413.324768 590.751709,416.042145 
	C587.418945,418.997620 584.097839,418.497589 581.007446,415.480225 
	C580.415466,414.902222 579.792236,413.894745 579.167419,413.882202 
	C571.671753,413.731720 568.335083,407.428772 563.511414,403.381165 
	C561.726685,401.883606 559.890503,400.647247 557.682922,401.639984 
	C555.595093,402.578827 555.647888,404.784485 555.666992,406.725525 
	C557.386169,408.327637 558.895264,406.625763 560.462341,406.632111 
	C562.765259,406.641449 564.923462,406.905426 565.870911,409.299286 
	C566.695129,411.381561 566.784058,413.622223 565.148132,415.418396 
	C563.379578,417.360168 561.228149,417.716278 558.805176,416.494598 
	C557.638733,415.906464 556.382385,415.342987 555.109619,415.154846 
	C553.133240,414.862671 551.972717,416.110992 551.552490,417.911255 
	C551.131409,419.715088 552.271729,420.793274 553.794861,421.286591 
	C554.873169,421.635895 556.119080,421.785950 557.238403,421.636627 
	C562.841125,420.889282 567.349487,422.687408 570.820618,427.134735 
	C572.171204,428.865082 573.911377,429.098541 576.078796,429.175079 
	C580.144165,429.318573 583.096191,431.352631 583.277283,435.875336 
	C583.429810,439.683777 581.671265,442.441864 577.850281,443.136902 
	C573.662231,443.898682 570.885315,441.960388 569.459045,437.866425 
	C567.192139,431.359589 562.794006,427.892853 556.109070,428.418335 
	C550.615417,428.850159 546.967529,426.241394 543.047668,422.102753 
	C538.646667,429.100922 534.500488,435.641632 529.298340,441.630005 
	C532.090149,445.206360 534.813416,448.218781 538.805725,449.833496 
	C541.487549,450.918091 542.612122,452.998840 542.218140,455.805298 
	C541.847351,458.446716 540.186890,459.952698 537.555786,460.229736 
	C534.661133,460.534546 532.611694,459.123535 531.832153,456.445068 
	C530.607727,452.237793 527.106506,450.268311 523.910461,447.327362 
	C520.072754,450.800446 516.382751,454.102417 512.756104,457.472626 
	C512.332825,457.865967 511.968536,458.691498 512.069275,459.223450 
	C513.181519,465.096466 509.534363,465.415894 505.233154,465.399567 
	C486.407074,465.328033 467.580566,465.361755 448.754242,465.345123 
	C447.424286,465.343933 446.072266,465.376831 444.769745,465.159119 
	C442.889771,464.844818 441.879272,463.572083 441.835175,461.673004 
	C441.794586,459.925415 442.857849,458.443054 444.425415,458.533813 
	C457.017670,459.262909 462.670959,449.287720 469.269501,441.707062 
	C478.197296,431.450439 487.088806,420.982300 493.218781,408.602203 
	C495.704681,403.581696 497.305756,398.455627 496.826782,392.756897 
	C496.348480,387.066803 492.863617,382.372742 487.238770,381.523132 
	C478.211823,380.159668 469.283997,380.992004 460.813385,384.682587 
	C457.876953,385.961945 455.245697,387.864044 453.817810,390.846741 
	C452.422943,393.760559 450.647552,393.604248 448.174774,392.282990 
	C440.621063,388.247009 435.069794,379.126648 435.991302,371.396545 
	C437.099426,362.101685 442.580170,356.412476 451.403717,353.759827 
	C454.588165,352.802521 457.819061,351.987488 460.967438,350.925781 
	C464.718872,349.660797 467.689758,347.365662 469.654205,343.823761 
	C475.433746,333.403290 484.504395,328.494080 496.132355,326.483673 
	C512.992249,323.568726 527.250427,315.852295 536.485596,300.655853 
	C536.893250,299.984985 537.449341,299.404327 538.318481,298.292969 
	C540.891968,303.723236 539.419128,308.705994 538.775635,313.620453 
	C538.093323,318.831848 534.838196,323.003387 532.494751,327.639099 
	C536.928101,328.241791 536.928101,328.241791 548.516663,319.774933 
	C551.118774,321.296814 549.325500,324.055542 550.220154,326.031799 
	C560.251770,329.587036 567.865051,324.939941 571.510254,314.669983 
M516.566589,421.037140 
	C522.016174,408.747192 525.047119,396.075745 521.619934,382.683472 
	C517.993286,368.512146 503.026764,360.151184 490.435516,365.136719 
	C493.462830,366.945221 496.927551,366.394073 500.013916,367.430786 
	C512.798462,371.725159 519.166931,384.129150 516.970947,399.126221 
	C514.216492,417.937653 504.582581,432.987762 492.119873,446.583282 
	C488.905792,450.089569 485.123138,453.074677 480.970825,456.876801 
	C486.303467,458.640778 489.281128,457.492828 492.152527,454.641388 
	C501.935608,444.926239 510.029907,434.018005 516.566589,421.037140 
z"/>
<path fill="#000000" opacity="1.000000" stroke="none" 
	d="
M552.810547,439.249573 
	C554.660095,441.239105 556.391785,442.503937 558.888916,442.982483 
	C562.303711,443.636993 563.859863,446.182526 563.513489,449.621948 
	C563.207947,452.656952 561.184204,454.603729 558.345276,454.896240 
	C554.962952,455.244812 552.429321,453.291138 551.909302,449.940948 
	C551.344238,446.300507 549.308472,444.017181 546.454346,441.791443 
	C545.091980,442.940796 543.884827,444.046051 542.586792,445.031586 
	C541.080261,446.175293 539.509277,446.244568 538.089050,444.854675 
	C536.740479,443.534943 536.278198,441.846436 537.488586,440.371033 
	C539.269104,438.200592 541.222839,436.118713 543.371826,434.320679 
	C545.184326,432.804169 547.145020,433.507141 548.736877,435.060242 
	C550.044861,436.336304 551.287659,437.679169 552.810547,439.249573 
z"/>
<path fill="#000000" opacity="1.000000" stroke="none" 
	d="
M471.337341,322.453308 
	C473.814423,323.038879 474.984436,324.396729 474.517181,326.494659 
	C474.055695,328.566711 472.282379,329.218140 470.294678,329.217987 
	C462.175751,329.217407 454.056488,329.242737 445.938080,329.173187 
	C443.788849,329.154785 441.854492,328.398346 441.909149,325.803772 
	C441.964600,323.172668 443.985657,322.673645 446.111298,322.644440 
	C454.390747,322.530548 462.670868,322.461639 471.337341,322.453308 
z"/>
<path fill="#000000" opacity="1.000000" stroke="none" 
	d="
M463.445740,416.567627 
	C464.900208,419.922729 463.299652,421.588135 460.624451,421.736847 
	C455.499298,422.021729 450.343689,421.904846 445.206818,421.751129 
	C443.490387,421.699768 441.993378,420.778076 441.808624,418.735809 
	C441.626068,416.717499 442.793427,415.296814 444.573273,415.241852 
	C450.789612,415.049805 457.102051,413.663025 463.445740,416.567627 
z"/>
<path fill="#000000" opacity="1.000000" stroke="none" 
	d="
M561.268433,311.857117 
	C558.717224,317.554749 554.043640,318.999237 550.903320,315.425995 
	C549.075989,313.346802 548.742737,310.923767 550.023499,308.502075 
	C551.280212,306.125824 553.363892,304.695740 556.138428,305.218140 
	C559.453064,305.842163 561.402466,307.859039 561.268433,311.857117 
z"/>
<path fill="#000000" opacity="1.000000" stroke="none" 
	d="
M442.184723,341.588623 
	C443.967590,339.283905 445.827026,338.160156 448.362305,339.421631 
	C450.100677,340.286591 451.145996,341.672241 451.210358,343.679352 
	C451.275604,345.714752 450.157959,347.081512 448.555054,348.079163 
	C447.022034,349.033295 445.402344,348.933075 443.903931,347.980072 
	C441.612549,346.522766 441.282440,344.386627 442.184723,341.588623 
z"/>
<path fill="#000000" opacity="1.000000" stroke="none" 
	d="
M474.886627,398.581787 
	C478.524872,399.210480 479.707733,401.348694 479.057373,404.366211 
	C478.493683,406.981720 476.418976,408.190460 473.876251,407.937866 
	C471.478241,407.699615 470.043732,405.979980 469.853394,403.611084 
	C469.594482,400.389099 471.296509,398.713257 474.886627,398.581787 
z"/>
<path fill="#000000" opacity="1.000000" stroke="none" 
	d="
M455.849670,442.083923 
	C453.002991,442.441498 451.622375,441.313934 451.520660,438.864471 
	C451.461334,437.435089 452.125397,436.259338 453.582123,435.781403 
	C455.142334,435.269562 456.627930,435.460236 457.555573,436.935181 
	C458.858582,439.006989 458.310333,440.720581 455.849670,442.083923 
z"/>
</svg>